<mxfile host="app.diagrams.net" agent="Mozilla/5.0 (Windows NT 10.0; Win64; x64) AppleWebKit/537.36 (KHTML, like Gecko) Chrome/133.0.0.0 Safari/537.36 OPR/118.0.0.0" version="27.0.5">
  <diagram name="Página-1" id="3gmKyA3EPUJFw8Cgybaw">
    <mxGraphModel grid="1" page="1" gridSize="10" guides="1" tooltips="1" connect="1" arrows="1" fold="1" pageScale="1" pageWidth="827" pageHeight="1169" math="0" shadow="0">
      <root>
        <mxCell id="0" />
        <mxCell id="1" parent="0" />
        <mxCell id="2" value="Usuario" style="shape=umlLifeline;perimeter=lifelinePerimeter;whiteSpace=wrap;container=1;dropTarget=0;collapsible=0;recursiveResize=0;outlineConnect=0;portConstraint=eastwest;newEdgeStyle={&quot;edgeStyle&quot;:&quot;elbowEdgeStyle&quot;,&quot;elbow&quot;:&quot;vertical&quot;,&quot;curved&quot;:0,&quot;rounded&quot;:0};size=65;" vertex="1" parent="1">
          <mxGeometry width="150" height="858" as="geometry" />
        </mxCell>
        <mxCell id="3" value="ParqueAutomotor" style="shape=umlLifeline;perimeter=lifelinePerimeter;whiteSpace=wrap;container=1;dropTarget=0;collapsible=0;recursiveResize=0;outlineConnect=0;portConstraint=eastwest;newEdgeStyle={&quot;edgeStyle&quot;:&quot;elbowEdgeStyle&quot;,&quot;elbow&quot;:&quot;vertical&quot;,&quot;curved&quot;:0,&quot;rounded&quot;:0};size=65;" vertex="1" parent="1">
          <mxGeometry x="266" width="150" height="858" as="geometry" />
        </mxCell>
        <mxCell id="4" value="Vehículo" style="shape=umlLifeline;perimeter=lifelinePerimeter;whiteSpace=wrap;container=1;dropTarget=0;collapsible=0;recursiveResize=0;outlineConnect=0;portConstraint=eastwest;newEdgeStyle={&quot;edgeStyle&quot;:&quot;elbowEdgeStyle&quot;,&quot;elbow&quot;:&quot;vertical&quot;,&quot;curved&quot;:0,&quot;rounded&quot;:0};size=65;" vertex="1" parent="1">
          <mxGeometry x="564" width="150" height="858" as="geometry" />
        </mxCell>
        <mxCell id="5" value="Coche" style="shape=umlLifeline;perimeter=lifelinePerimeter;whiteSpace=wrap;container=1;dropTarget=0;collapsible=0;recursiveResize=0;outlineConnect=0;portConstraint=eastwest;newEdgeStyle={&quot;edgeStyle&quot;:&quot;elbowEdgeStyle&quot;,&quot;elbow&quot;:&quot;vertical&quot;,&quot;curved&quot;:0,&quot;rounded&quot;:0};size=65;" vertex="1" parent="1">
          <mxGeometry x="845" width="150" height="858" as="geometry" />
        </mxCell>
        <mxCell id="6" value="Motocicleta" style="shape=umlLifeline;perimeter=lifelinePerimeter;whiteSpace=wrap;container=1;dropTarget=0;collapsible=0;recursiveResize=0;outlineConnect=0;portConstraint=eastwest;newEdgeStyle={&quot;edgeStyle&quot;:&quot;elbowEdgeStyle&quot;,&quot;elbow&quot;:&quot;vertical&quot;,&quot;curved&quot;:0,&quot;rounded&quot;:0};size=65;" vertex="1" parent="1">
          <mxGeometry x="1045" width="150" height="858" as="geometry" />
        </mxCell>
        <mxCell id="7" value="alt" style="shape=umlFrame;dashed=1;pointerEvents=0;dropTarget=0;strokeColor=#B3B3B3;height=20;width=30" vertex="1" parent="1">
          <mxGeometry x="628" y="183" width="503" height="418" as="geometry" />
        </mxCell>
        <mxCell id="8" value="[tipo de vehículo es coche]" style="text;strokeColor=none;fillColor=none;align=center;verticalAlign=middle;whiteSpace=wrap;" vertex="1" parent="7">
          <mxGeometry x="30" width="473" height="20" as="geometry" />
        </mxCell>
        <mxCell id="9" value="[tipo de vehículo es motocicleta]" style="shape=line;dashed=1;whiteSpace=wrap;verticalAlign=top;labelPosition=center;verticalLabelPosition=middle;align=center;strokeColor=#B3B3B3;" vertex="1" parent="7">
          <mxGeometry y="214" width="503" height="3" as="geometry" />
        </mxCell>
        <mxCell id="10" value="solicitar gestión de vehículo" style="verticalAlign=bottom;edgeStyle=elbowEdgeStyle;elbow=vertical;curved=0;rounded=0;endArrow=block;" edge="1" parent="1" source="2" target="3">
          <mxGeometry relative="1" as="geometry">
            <Array as="points">
              <mxPoint x="217" y="109" />
            </Array>
          </mxGeometry>
        </mxCell>
        <mxCell id="11" value="crear vehículo (matrícula, marca)" style="verticalAlign=bottom;edgeStyle=elbowEdgeStyle;elbow=vertical;curved=0;rounded=0;endArrow=block;" edge="1" parent="1" source="3" target="4">
          <mxGeometry relative="1" as="geometry">
            <Array as="points">
              <mxPoint x="499" y="163" />
            </Array>
          </mxGeometry>
        </mxCell>
        <mxCell id="12" value="establecer número de puertas" style="verticalAlign=bottom;edgeStyle=elbowEdgeStyle;elbow=vertical;curved=0;rounded=0;endArrow=block;" edge="1" parent="1" source="4" target="5">
          <mxGeometry relative="1" as="geometry">
            <Array as="points">
              <mxPoint x="788" y="264" />
            </Array>
          </mxGeometry>
        </mxCell>
        <mxCell id="13" value="encender" style="verticalAlign=bottom;edgeStyle=elbowEdgeStyle;elbow=vertical;curved=0;rounded=0;endArrow=block;" edge="1" parent="1" source="5" target="4">
          <mxGeometry relative="1" as="geometry">
            <Array as="points">
              <mxPoint x="791" y="318" />
            </Array>
          </mxGeometry>
        </mxCell>
        <mxCell id="14" value="emitir sonido de arranque" style="verticalAlign=bottom;edgeStyle=elbowEdgeStyle;elbow=vertical;curved=0;rounded=0;endArrow=block;" edge="1" parent="1" source="4" target="5">
          <mxGeometry relative="1" as="geometry">
            <Array as="points">
              <mxPoint x="788" y="372" />
            </Array>
          </mxGeometry>
        </mxCell>
        <mxCell id="15" value="establecer tipo de casco" style="verticalAlign=bottom;edgeStyle=elbowEdgeStyle;elbow=vertical;curved=0;rounded=0;endArrow=block;" edge="1" parent="1" source="4" target="6">
          <mxGeometry relative="1" as="geometry">
            <Array as="points">
              <mxPoint x="888" y="473" />
            </Array>
          </mxGeometry>
        </mxCell>
        <mxCell id="16" value="encender" style="verticalAlign=bottom;edgeStyle=elbowEdgeStyle;elbow=vertical;curved=0;rounded=0;endArrow=block;" edge="1" parent="1" source="6" target="4">
          <mxGeometry relative="1" as="geometry">
            <Array as="points">
              <mxPoint x="891" y="527" />
            </Array>
          </mxGeometry>
        </mxCell>
        <mxCell id="17" value="emitir sonido de arranque" style="verticalAlign=bottom;edgeStyle=elbowEdgeStyle;elbow=vertical;curved=0;rounded=0;endArrow=block;" edge="1" parent="1" source="4" target="6">
          <mxGeometry relative="1" as="geometry">
            <Array as="points">
              <mxPoint x="888" y="581" />
            </Array>
          </mxGeometry>
        </mxCell>
        <mxCell id="18" value="mostrar información del vehículo" style="verticalAlign=bottom;edgeStyle=elbowEdgeStyle;elbow=vertical;curved=0;rounded=0;endArrow=block;" edge="1" parent="1" source="4" target="2">
          <mxGeometry relative="1" as="geometry">
            <Array as="points">
              <mxPoint x="369" y="645" />
            </Array>
          </mxGeometry>
        </mxCell>
        <mxCell id="19" value="apagar vehículo" style="verticalAlign=bottom;edgeStyle=elbowEdgeStyle;elbow=vertical;curved=0;rounded=0;endArrow=block;" edge="1" parent="1" source="2" target="4">
          <mxGeometry relative="1" as="geometry">
            <Array as="points">
              <mxPoint x="366" y="699" />
            </Array>
          </mxGeometry>
        </mxCell>
        <mxCell id="20" value="confirmar apagado" style="verticalAlign=bottom;edgeStyle=elbowEdgeStyle;elbow=vertical;curved=0;rounded=0;endArrow=block;" edge="1" parent="1" source="4" target="2">
          <mxGeometry relative="1" as="geometry">
            <Array as="points">
              <mxPoint x="369" y="753" />
            </Array>
          </mxGeometry>
        </mxCell>
      </root>
    </mxGraphModel>
  </diagram>
</mxfile>
